<svg width="51" height="50" viewBox="0 0 51 50" fill="none" xmlns="http://www.w3.org/2000/svg">
<path id="vector" fill-rule="evenodd" clip-rule="evenodd" d="M25.4447 0C11.3744 0 0 11.4583 0 25.6337C0 36.965 7.28799 46.5566 17.3984 49.9514C18.6624 50.2066 19.1254 49.3998 19.1254 48.7211C19.1254 48.1269 19.0838 46.0899 19.0838 43.9675C12.0057 45.4956 10.5317 40.9118 10.5317 40.9118C9.39423 37.941 7.70882 37.1774 7.70882 37.1774C5.39216 35.6071 7.87757 35.6071 7.87757 35.6071C10.4474 35.7769 11.7958 38.2384 11.7958 38.2384C14.0703 42.1425 17.7353 41.0394 19.2098 40.3602C19.4202 38.705 20.0947 37.5592 20.8109 36.9228C15.1656 36.3285 9.226 34.1217 9.226 24.2754C9.226 21.4744 10.2364 19.1827 11.8375 17.4004C11.5848 16.764 10.7 14.1322 12.0906 10.6099C12.0906 10.6099 14.239 9.93069 19.0833 13.2411C21.1572 12.68 23.2961 12.3945 25.4447 12.3921C27.5931 12.3921 29.7832 12.6895 31.8056 13.2411C36.6504 9.93069 38.7988 10.6099 38.7988 10.6099C40.1894 14.1322 39.304 16.764 39.0514 17.4004C40.6946 19.1827 41.6634 21.4744 41.6634 24.2754C41.6634 34.1217 35.7238 36.2858 30.0363 36.9228C30.9634 37.729 31.7634 39.2566 31.7634 41.6759C31.7634 45.1134 31.7217 47.8722 31.7217 48.7206C31.7217 49.3998 32.1853 50.2066 33.4488 49.9519C43.5592 46.5561 50.8472 36.965 50.8472 25.6337C50.8889 11.4583 39.4728 0 25.4447 0Z" fill="white"/>
</svg>
