<svg width="50" height="50" viewBox="0 0 50 50" fill="none" xmlns="http://www.w3.org/2000/svg">
<g id="whatsapp">
<path id="vector" d="M25.0786 6.85449C14.7867 6.85449 6.41089 14.9218 6.40726 24.8363C6.40484 28.0069 7.26613 31.1013 8.89919 33.8267L6.25 43.1448L16.1488 40.6444C18.9023 42.0847 21.9639 42.836 25.0714 42.8339H25.0786C35.3706 42.8339 43.7464 34.7654 43.75 24.8509C43.7524 20.0484 41.8121 15.5279 38.2859 12.1299C34.7609 8.7307 30.0734 6.8557 25.0786 6.85449ZM25.0786 39.7964H25.0726C22.2879 39.7964 19.5565 39.0755 17.1734 37.7134L16.6048 37.3892L10.7331 38.8722L12.3008 33.3561L11.9319 32.7912C10.3821 30.4277 9.55718 27.6626 9.55847 24.8363C9.5621 16.5948 16.525 9.89199 25.0847 9.89199C29.229 9.8932 33.1254 11.4501 36.0564 14.2747C38.9875 17.0993 40.6 20.8553 40.5976 24.8497C40.5939 33.0912 33.6323 39.7964 25.0774 39.7964H25.0786ZM33.5911 28.6009C33.1242 28.3771 30.8306 27.2896 30.4024 27.1384C29.9754 26.9896 29.6645 26.9122 29.3536 27.3622C29.044 27.8122 28.1488 28.8247 27.8778 29.1234C27.6044 29.4234 27.3323 29.4597 26.8653 29.2359C26.3984 29.0109 24.8948 28.5368 23.1141 27.0053C21.7266 25.815 20.7903 24.344 20.5181 23.8928C20.246 23.444 20.4891 23.2009 20.7226 22.9771C20.9319 22.7775 21.1895 22.4533 21.4218 22.1908C21.654 21.9283 21.7315 21.7408 21.8887 21.4408C22.0435 21.142 21.9661 20.8783 21.8488 20.6545C21.7315 20.4283 20.8 18.217 20.4093 17.3182C20.0319 16.4424 19.6472 16.5597 19.3605 16.5452C19.0883 16.5331 18.7786 16.5295 18.4653 16.5295C18.1569 16.5295 17.65 16.642 17.2218 17.092C16.7948 17.542 15.5887 18.6283 15.5887 20.8396C15.5887 23.0521 17.2605 25.1884 17.494 25.4884C17.7274 25.7872 20.7843 30.3271 25.4645 32.2747C26.5774 32.7355 27.446 33.0126 28.1246 33.2206C29.2423 33.563 30.2597 33.5134 31.0629 33.3984C31.9581 33.269 33.8234 32.3122 34.2105 31.2634C34.6 30.2146 34.6 29.3146 34.4839 29.1271C34.3702 28.9396 34.0581 28.8271 33.5911 28.6009Z" fill="white"/>
</g>
</svg>
